<?xml version="1.0" standalone="no"?><!DOCTYPE svg PUBLIC "-//W3C//DTD SVG 1.1//EN" "http://www.w3.org/Graphics/SVG/1.1/DTD/svg11.dtd"><svg class="icon" width="200px" height="200.00px" viewBox="0 0 1024 1024" version="1.1" xmlns="http://www.w3.org/2000/svg"><path fill="#ffffff" d="M516.5 607.6l-62.7 62.7 6 9V736h56.7v53.8h-56.7v3c-2 19.9-7 37.8-14.9 53.8l71.7 74.7-38.8 38.8-62.7-62.7c-13.9 19.9-31.9 35.3-53.8 46.3s-44.8 16.4-68.7 16.4-46.8-5.5-68.7-16.4-39.8-26.4-53.8-46.3l-62.7 62.7-38.8-38.8 71.7-71.7c-8-17.9-12.9-35.8-14.9-53.8v-3H68.7v-56.7h56.7v-56.7l9-9-65.7-62.7 38.8-38.8 50.8 47.8c8-29.9 24.4-54.8 49.3-74.7s53.3-29.9 85.1-29.9 60.2 10 85.1 29.9c24.9 19.9 41.3 44.8 49.3 74.7l50.8-47.8 38.8 38.8z m-224-38.9c-23.9 0-43.8 8-59.7 23.9-15.9 15.9-23.9 35.8-23.9 59.7h167.3c0-23.9-8-43.8-23.9-59.7s-35.8-23.9-59.7-23.9zM406 709.1H182v83.6c2 29.9 13.4 55.3 34.3 76.2 20.9 20.9 46.3 32.4 76.2 34.3 29.9-2 55.3-13.4 76.2-34.3 20.9-20.9 33.4-46.3 37.3-76.2v-83.6zM391 64l-41.8 23.9v376.3c19.9 6 38.8 14.9 56.7 26.9V138.7l483.8 307.6-316.6 200.1v65.7l382.3-241.9v-47.8L391 64z" /></svg>