<?xml version="1.0" standalone="no"?><!DOCTYPE svg PUBLIC "-//W3C//DTD SVG 1.1//EN" "http://www.w3.org/Graphics/SVG/1.1/DTD/svg11.dtd"><svg class="icon" width="200px" height="200.00px" viewBox="0 0 1024 1024" version="1.1" xmlns="http://www.w3.org/2000/svg"><path fill="#ffffff" d="M931.302 94.293L960 122.99v360.313l-28.698 28.698H822.89L714.477 623.602l-51.018-22.32v-89.281h-63.772l3.189-28.698-3.189-31.886h121.167v76.527l76.527-76.527h105.224v-299.73H363.73v63.772l-31.886-3.189-28.698 3.189v-92.47l28.698-28.698h599.458v0.002zM446.633 658.677c29.76 12.754 56.332 30.823 79.715 54.206 23.383 23.383 41.452 52.081 54.206 86.093 10.629 23.383 17.006 46.766 19.132 70.149l3.189 60.584h-60.584v-31.886c0-27.635-5.314-53.675-15.943-78.121-10.629-24.446-25.509-46.766-44.641-66.961-19.132-20.195-41.452-35.606-66.961-46.235-25.509-10.629-52.081-15.943-79.715-15.943h-3.189c-27.635 0-54.206 5.314-79.715 15.943s-47.829 26.04-66.961 46.235c-19.132 20.195-34.012 42.515-44.641 66.961-10.629 24.446-15.943 50.486-15.943 78.121v31.886H64l3.189-57.395c2.126-25.509 7.44-49.955 15.943-73.338 14.88-34.012 34.012-62.709 57.395-86.093s48.892-41.452 76.527-54.206c-27.635-19.132-49.955-44.109-66.961-74.932s-25.509-64.835-25.509-102.036 9.034-71.744 27.103-103.63 43.578-57.395 76.527-76.527 68.024-28.698 105.224-28.698 71.744 9.566 103.63 28.698 57.395 44.641 76.527 76.527 28.698 66.429 28.698 103.63-8.503 71.212-25.509 102.036c-17.007 30.823-40.39 55.8-70.151 74.932z m-114.79-28.697c42.515 0 78.121-14.349 106.819-43.046s43.046-63.772 43.046-105.224-14.349-76.527-43.046-105.224-63.772-43.046-105.224-43.046-76.527 14.349-105.224 43.046c-28.697 28.698-43.046 63.772-43.046 105.224s14.349 76.527 43.046 105.224 63.24 43.046 103.629 43.046z" /></svg>