<?xml version="1.0" standalone="no"?><!DOCTYPE svg PUBLIC "-//W3C//DTD SVG 1.1//EN" "http://www.w3.org/Graphics/SVG/1.1/DTD/svg11.dtd"><svg class="icon" width="200px" height="200.00px" viewBox="0 0 1024 1024" version="1.1" xmlns="http://www.w3.org/2000/svg"><path fill="#ffffff" d="M512 75.947c79.644 0 153.813 19.911 222.507 59.733s123.449 94.08 164.267 162.773S960 442.311 960 523.947c0 61.724-12.444 121.458-37.333 179.2s-60.729 108.018-107.52 150.827-100.053 74.169-159.787 94.08c-9.956 0-17.422-1.991-22.4-5.973-4.978-3.982-7.467-9.956-7.467-17.92V801.707c0-19.911-2.987-36.836-8.96-50.773s-12.942-23.893-20.907-29.867c61.724-7.964 107.52-24.889 137.387-50.773 43.805-35.84 65.707-92.587 65.707-170.24 0-45.796-15.929-85.618-47.787-119.467l2.987-2.987c9.956-39.822 6.969-78.649-8.96-116.48-5.973-1.991-15.929-0.996-29.867 2.987-25.884 5.973-56.747 20.907-92.587 44.8-39.822-9.956-76.658-14.933-110.507-14.933-45.796 0-83.627 4.978-113.493 14.933-25.884-17.92-48.782-30.862-68.693-38.827-15.929-5.973-29.867-8.96-41.813-8.96h-11.947c-17.92 39.822-19.911 78.649-5.973 116.48-31.858 33.849-47.787 73.671-47.787 119.467 0 77.653 21.902 135.396 65.707 173.227 31.858 25.884 77.653 42.809 137.387 50.773-15.929 15.929-24.889 35.84-26.88 59.733-19.911 7.964-39.822 10.951-59.733 8.96-27.876-1.991-50.773-17.92-68.693-47.787l-8.96-11.947c-5.973-7.964-14.436-15.431-25.387-22.4-10.951-6.969-22.4-11.449-34.347-13.44-7.964 0-13.938 0.996-17.92 2.987-7.964 5.973-2.987 14.933 14.933 26.88l8.96 2.987c5.973 5.973 12.942 13.938 20.907 23.893 7.964 9.956 13.938 22.898 17.92 38.827l8.96 11.947c5.973 9.956 12.942 18.916 20.907 26.88 13.938 9.956 29.867 16.924 47.787 20.907 21.902 5.973 46.791 5.973 74.667 0v74.667c0 7.964-2.489 13.938-7.467 17.92-4.978 3.982-12.444 5.973-22.4 5.973-59.733-19.911-112.498-50.773-158.293-92.587s-81.636-91.591-107.52-149.333C76.942 648.391 64 587.662 64 523.947c0-81.636 19.911-156.8 59.733-225.493s94.08-122.951 162.773-162.773S430.364 75.947 512 75.947z" /></svg>