<?xml version="1.0" standalone="no"?><!DOCTYPE svg PUBLIC "-//W3C//DTD SVG 1.1//EN" "http://www.w3.org/Graphics/SVG/1.1/DTD/svg11.dtd"><svg class="icon" width="200px" height="200.00px" viewBox="0 0 1024 1024" version="1.1" xmlns="http://www.w3.org/2000/svg"><path fill="#ffffff" d="M536.405 625.307c-6.973 4.648-15.108 6.973-24.405 6.973l-6.973 3.486c-16.27 0-30.796 4.648-43.58 13.945-12.783 9.297-22.661 20.918-29.634 34.864H302.817v142.942c0 4.648 2.324 9.297 6.973 13.945s9.297 6.973 13.946 6.973h104.591c6.973 0 12.202-2.324 15.689-6.973s5.23-9.297 5.23-13.945v-52.296c16.27 13.945 34.864 22.08 55.782 24.405H512l3.486 27.891c0 11.621-2.324 22.661-6.973 33.121-4.648 10.459-11.04 19.756-19.175 27.891-8.135 8.135-17.432 13.946-27.891 17.432-10.459 3.486-21.499 5.23-33.121 5.23H323.735c-11.621 0-22.661-1.743-33.121-5.23-10.459-3.486-19.756-9.297-27.891-17.432-8.135-8.135-13.946-17.432-17.432-27.891-3.486-10.459-5.23-21.499-5.23-33.121V722.926c0-30.215-5.811-58.687-17.432-85.416-11.621-26.729-29.053-51.715-52.296-74.957-27.891-27.891-49.39-58.687-64.498-92.389s-23.824-71.471-26.148-113.307c2.324-27.891 6.973-54.039 13.946-78.444s16.851-47.647 29.634-69.728c12.783-22.08 27.891-41.837 45.323-59.268s37.188-32.54 59.268-45.323 45.323-22.661 69.728-29.634S348.14 64 376.031 64s54.039 3.486 78.444 10.459 47.647 16.851 69.728 29.634 42.418 27.891 61.012 45.323c18.594 17.432 34.283 37.188 47.066 59.268 12.783 22.08 22.661 45.323 29.634 69.728 6.973 24.405 10.459 50.553 10.459 78.444 0 34.864-5.811 67.403-17.432 97.619-16.27 11.621-26.729 26.729-31.377 45.323l-6.973 24.405c-9.297 13.946-20.918 26.729-34.864 38.35-18.594 18.594-33.702 39.512-45.323 62.754z m167.346 285.884c-11.621-44.161-29.053-81.349-52.296-111.564-18.594-25.567-40.674-45.323-66.241-59.268-16.27-9.297-34.864-16.27-55.782-20.918l-24.405-3.486 24.405-3.486c20.918-2.324 39.512-9.297 55.782-20.918 25.567-13.946 47.647-32.54 66.241-55.782 23.243-32.54 40.674-70.89 52.296-115.051 9.297 44.161 25.567 82.511 48.809 115.051 18.594 23.243 40.674 41.837 66.241 55.782 18.594 11.621 37.188 18.594 55.782 20.918l24.405 3.486c-11.621 0-25.567 2.324-41.837 6.973-30.215 11.621-58.106 29.053-83.673 52.296-32.539 34.862-55.782 80.185-69.727 135.967z m90.646-48.81c-4.648 4.648-6.973 10.459-6.973 17.432s2.324 12.783 6.973 17.432c20.918 13.946 38.35 31.377 52.296 52.296 4.648 6.973 11.04 10.459 19.175 10.459 8.135 0 14.527-3.486 19.175-10.459 13.946-20.918 31.377-38.35 52.296-52.296 4.649-4.648 6.973-10.459 6.973-17.432s-2.324-12.783-6.973-17.432c-20.918-13.946-38.35-31.377-52.296-52.296-4.648-4.648-11.04-6.973-19.175-6.973-8.135 0-14.527 2.324-19.175 6.973-13.946 20.919-31.378 38.351-52.296 52.296z" /></svg>