<?xml version="1.0" standalone="no"?><!DOCTYPE svg PUBLIC "-//W3C//DTD SVG 1.1//EN" "http://www.w3.org/Graphics/SVG/1.1/DTD/svg11.dtd"><svg class="icon" width="200px" height="200.00px" viewBox="0 0 1024 1024" version="1.1" xmlns="http://www.w3.org/2000/svg"><path fill="#ffffff" d="M583.817 296.239c29.639-18.239 47.878-45.028 54.718-80.366 6.84-35.338 0-67.257-20.519-95.756s-47.878-46.168-82.076-53.008-66.117-1.14-95.756 17.099c-18.239 13.679-33.059 30.779-44.458 51.298s-15.959 42.178-13.679 64.977c2.28 22.799 9.69 43.888 22.229 63.267 12.539 19.379 29.069 34.198 49.588 44.458 20.519 10.26 42.178 14.249 64.977 11.969 22.798-2.279 44.457-10.259 64.976-23.938z m-37.619-157.313c13.679 9.12 22.229 22.229 25.649 39.328 3.42 17.099 0.57 32.489-8.55 46.168-9.12 13.679-22.229 22.799-39.328 27.359-17.099 4.56-32.489 2.28-46.168-6.84-11.399-6.84-19.949-15.389-25.649-25.649-5.7-10.26-7.98-21.089-6.84-32.489 1.14-11.399 5.13-22.229 11.969-32.489 6.84-10.26 15.389-17.669 25.649-22.229 10.26-4.56 21.089-6.27 32.489-5.13 11.4 1.141 21.66 5.131 30.779 11.971z m167.573 0c-25.079 18.239-38.758 42.178-41.038 71.817-2.28 29.639 6.84 55.857 27.359 78.656 13.679 13.679 30.209 22.229 49.588 25.649 19.379 3.42 37.048 1.71 53.008-5.13s29.069-16.529 39.328-29.069c10.26-12.539 17.099-26.789 20.519-42.748 3.42-15.959 2.85-31.349-1.71-46.168-4.56-14.819-12.539-27.929-23.939-39.328-15.959-15.959-35.338-25.079-58.137-27.359-22.8-2.28-44.459 2.28-64.978 13.68z m30.779 102.595c-4.56-4.56-6.84-11.399-6.84-20.519s2.85-17.099 8.55-23.939c5.7-6.84 13.109-10.26 22.229-10.26s16.529 3.42 22.229 10.26c5.7 6.84 8.55 14.819 8.55 23.939s-2.85 16.529-8.55 22.229c-5.7 5.7-13.109 8.55-22.229 8.55s-17.1-3.42-23.939-10.26zM204.214 798.956c-4.56 0-7.98-1.14-10.26-3.42-2.28-2.28-3.42-5.7-3.42-10.26V604.025h-64.977V460.391c0-11.399 5.13-22.229 15.389-32.489s22.229-15.389 35.908-15.389h82.076c6.84-25.079 18.239-46.738 34.198-64.977H176.855c-31.919 0-58.707 11.4-80.366 34.198S64 430.753 64 460.391v140.214c0 18.239 6.27 34.198 18.809 47.878s26.789 20.519 42.748 20.519v116.275c0 22.799 7.98 41.608 23.939 56.427 15.959 14.819 34.198 22.229 54.718 22.229h116.275v-64.977H204.214z m468.519-417.221c20.519 22.799 30.779 49.018 30.779 78.657v205.191c0 18.239-6.27 34.198-18.809 47.878-12.539 13.679-26.789 20.519-42.748 20.519v150.473c0 18.239-6.27 34.198-18.809 47.878-12.539 13.679-27.929 22.799-46.168 27.359H447.023c-15.959-2.28-29.639-9.12-41.038-20.519-15.959-15.959-22.799-34.198-20.519-54.718V733.979c-18.239 0-33.629-6.84-46.168-20.519-12.539-13.679-18.809-29.639-18.809-47.878V463.811c0-31.919 10.829-59.277 32.489-82.076 21.659-22.799 48.448-34.198 80.366-34.198h157.313c31.918-0.001 59.277 11.399 82.076 34.198z m-30.779 78.656c0-4.56-1.71-10.83-5.13-18.809-3.42-7.98-9.12-14.819-17.099-20.519-7.98-5.7-17.669-8.55-29.069-8.55H433.344c-13.679 0-25.649 5.13-35.908 15.389s-14.249 21.089-11.969 32.489v208.611h61.557v215.45c0 2.28 1.14 4.56 3.42 6.84s5.7 3.42 10.26 3.42h102.595c4.56 0 7.98-1.14 10.26-3.42s3.42-4.56 3.42-6.84v-215.45h64.977V460.391z m177.832 403.542c20.519 0 38.758-7.41 54.718-22.229 15.959-14.819 23.939-33.628 23.939-56.427V669.002c15.959 0 30.209-6.84 42.748-20.519C953.73 634.804 960 618.844 960 600.605V460.391c0-29.639-10.829-55.858-32.489-78.656-21.659-22.799-48.448-34.198-80.366-34.198H730.87c15.959 18.239 27.359 39.898 34.198 64.977h82.076c13.679 0 25.649 5.13 35.908 15.389 10.26 10.26 15.389 21.089 15.389 32.489v143.634h-64.977v181.252c0 4.56-1.71 7.98-5.13 10.26s-6.27 3.42-8.55 3.42H703.511v64.977h116.275zM255.511 121.826c27.359 0 50.158 9.69 68.397 29.069 18.239 19.379 27.359 42.748 27.359 70.107 0 18.239-5.13 35.908-15.389 53.008-10.26 17.099-24.509 29.069-42.748 35.908s-37.048 8.55-56.427 5.13c-19.379-3.42-35.908-11.969-49.588-25.649-13.679-13.679-22.229-30.209-25.649-49.588s-1.71-38.188 5.13-56.427c6.84-18.239 18.239-33.059 34.198-44.458s34.198-17.1 54.717-17.1z m0 129.955c9.12 0 16.529-2.85 22.229-8.55 5.7-5.7 8.55-13.109 8.55-22.229s-2.85-17.099-8.55-23.939c-5.7-6.84-13.109-10.26-22.229-10.26s-16.529 3.42-22.229 10.26c-5.7 6.84-8.55 14.819-8.55 23.939s2.85 16.529 8.55 22.229c5.7 5.7 13.11 8.55 22.229 8.55z" /></svg>