<?xml version="1.0" standalone="no"?><!DOCTYPE svg PUBLIC "-//W3C//DTD SVG 1.1//EN" "http://www.w3.org/Graphics/SVG/1.1/DTD/svg11.dtd"><svg class="icon" width="200px" height="200.00px" viewBox="0 0 1024 1024" version="1.1" xmlns="http://www.w3.org/2000/svg"><path fill="#ffffff" d="M323.413333 162.645333l-149.077333 556.373334a106.666667 106.666667 0 1 0 206.08 55.210666l149.034667-556.373333-206.08-55.210667zM246.186667 121.173333a65.28 65.28 0 0 1 79.914666-46.165333l244.864 65.621333a65.28 65.28 0 0 1 46.122667 79.914667l-154.282667 575.786667a192 192 0 1 1-370.901333-99.413334L246.186667 121.173333z"  /><path fill="#ffffff" d="M896 577.28a42.666667 42.666667 0 0 1 42.666667 42.666667v253.44A65.28 65.28 0 0 1 873.386667 938.666667H277.333333a42.666667 42.666667 0 1 1 0-85.333334H853.333333v-233.386666a42.666667 42.666667 0 0 1 42.666667-42.666667zM234.666667 750.933333a42.666667 42.666667 0 0 1 42.666666-42.666666h0.085334a42.666667 42.666667 0 0 1 42.666666 42.666666v0.085334a42.666667 42.666667 0 0 1-42.666666 42.666666H277.333333a42.666667 42.666667 0 0 1-42.666666-42.666666V750.933333z"  /><path fill="#ffffff" d="M754.346667 406.528l-223.018667 103.978667a42.666667 42.666667 0 1 1-36.053333-77.312l241.194666-112.469334a65.28 65.28 0 0 1 86.698667 31.573334l107.136 229.717333a65.28 65.28 0 0 1-31.573333 86.698667L358.528 920.661333a42.666667 42.666667 0 0 1-36.053333-77.354666l522.026666-243.413334-90.154666-193.365333z"  /></svg>