<?xml version="1.0" standalone="no"?><!DOCTYPE svg PUBLIC "-//W3C//DTD SVG 1.1//EN" "http://www.w3.org/Graphics/SVG/1.1/DTD/svg11.dtd"><svg class="icon" width="200px" height="200.00px" viewBox="0 0 1024 1024" version="1.1" xmlns="http://www.w3.org/2000/svg"><path fill="#ffffff" d="M278.481 170H732.5c22.18 0 44.24 3.75 66.17 11.24 23.02 7.87 43.62 19.12 61.82 33.76 20.17 16.22 35.85 35.42 47.04 57.59C919.84 296.98 926 323.62 926 352.5c0 28.62-5.49 55.25-16.47 79.91-10.36 23.27-25.02 43.54-43.98 60.81-17.99 16.38-38.62 28.98-61.9 37.78-22.92 8.67-46.63 13-71.15 13h-49.106c-15.001 89.667-92.966 158-186.894 158-93.928 0-171.893-68.333-186.894-158H292c-34.97 0-63.89 7.01-86.78 21.04C172.41 585.14 156 620.13 156 670c0 47.37 16.41 81.11 49.22 101.21 12.85 7.88 27.96 13.68 45.31 17.41 13.6 2.92 27.42 4.38 41.47 4.38h478.133v-57.374l141.39 81.63-141.39 81.63V857H292c-18.58 0-36.88-1.94-54.91-5.81-24.47-5.25-46.24-13.72-65.31-25.4-24.36-14.93-43.29-34.46-56.77-58.58C99.67 739.77 92 707.37 92 670c0-38.64 7.61-71.93 22.83-99.89 13.48-24.76 32.46-44.64 56.95-59.65C204.93 490.15 245 480 292 480h17.776c15.412-89.174 93.145-157 186.724-157s171.312 67.826 186.724 157H732.5c16.72 0 32.89-2.95 48.51-8.86 15.66-5.92 29.48-14.34 41.44-25.24 26.37-24.01 39.55-55.14 39.55-93.4 0-36.1-13.87-65.31-41.62-87.63-12.36-9.94-26.49-17.63-42.41-23.07-15.22-5.2-30.38-7.8-45.47-7.8H274.84c-13.693 28.963-43.177 49-77.34 49-47.22 0-85.5-38.28-85.5-85.5s38.28-85.5 85.5-85.5c37.6 0 69.531 24.271 80.981 58zM412 446.678v8.265c0 4.687 1.6 9.244 4.54 12.912l45.44 56.686a4.744 4.744 0 0 1 1.05 2.978v64.022c0 7.835 4.43 14.991 11.45 18.489l34.74 17.339a14.377 14.377 0 0 0 13.96-0.629 14.303 14.303 0 0 0 6.8-12.173v-87.048a4.804 4.804 0 0 1 1.05-2.978l45.43-56.676a20.662 20.662 0 0 0 4.54-12.902v-8.265c0-11.424-9.28-20.688-20.72-20.688H432.74l-0.02-0.01c-5.72 0-10.9 2.319-14.65 6.056-3.75 3.748-6.07 8.915-6.07 14.622z" /></svg>