<?xml version="1.0" standalone="no"?><!DOCTYPE svg PUBLIC "-//W3C//DTD SVG 1.1//EN" "http://www.w3.org/Graphics/SVG/1.1/DTD/svg11.dtd"><svg class="icon" width="200px" height="200.00px" viewBox="0 0 1024 1024" version="1.1" xmlns="http://www.w3.org/2000/svg"><path fill="#ffffff" d="M85.333333 512a42.666667 42.666667 0 0 1 42.666667-42.666667h768a42.666667 42.666667 0 1 1 0 85.333334H128a42.666667 42.666667 0 0 1-42.666667-42.666667z"  /><path fill="#ffffff" d="M737.834667 353.834667a42.666667 42.666667 0 0 1 60.330666 0l128 128a42.666667 42.666667 0 0 1 0 60.330666l-128 128a42.666667 42.666667 0 0 1-60.330666-60.330666L835.669333 512l-97.834666-97.834667a42.666667 42.666667 0 0 1 0-60.330666zM286.165333 353.834667a42.666667 42.666667 0 0 1 0 60.330666L188.330667 512l97.834666 97.834667a42.666667 42.666667 0 1 1-60.330666 60.330666l-128-128a42.666667 42.666667 0 0 1 0-60.330666l128-128a42.666667 42.666667 0 0 1 60.330666 0z"  /></svg>