<?xml version="1.0" standalone="no"?><!DOCTYPE svg PUBLIC "-//W3C//DTD SVG 1.1//EN" "http://www.w3.org/Graphics/SVG/1.1/DTD/svg11.dtd"><svg class="icon" width="200px" height="200.00px" viewBox="0 0 1024 1024" version="1.1" xmlns="http://www.w3.org/2000/svg"><path fill="#ffffff" d="M512 170.666667a42.666667 42.666667 0 0 1 42.666667 42.666666v597.333334a42.666667 42.666667 0 1 1-85.333334 0V213.333333a42.666667 42.666667 0 0 1 42.666667-42.666666z m170.666667 0a42.666667 42.666667 0 0 1 42.666666 42.666666v597.333334a42.666667 42.666667 0 1 1-85.333333 0V213.333333a42.666667 42.666667 0 0 1 42.666667-42.666666z"  /><path fill="#ffffff" d="M256 384a213.333333 213.333333 0 0 1 213.333333-213.333333h256a42.666667 42.666667 0 1 1 0 85.333333h-256a128 128 0 0 0 0 256h42.666667a42.666667 42.666667 0 1 1 0 85.333333h-42.666667a213.333333 213.333333 0 0 1-213.333333-213.333333z"  /></svg>