<?xml version="1.0" standalone="no"?>
<!DOCTYPE svg PUBLIC "-//W3C//DTD SVG 1.1//EN" "http://www.w3.org/Graphics/SVG/1.1/DTD/svg11.dtd">
<svg t="1753258443660" class="icon" viewBox="0 0 1024 1024" version="1.1"
    xmlns="http://www.w3.org/2000/svg" p-id="3200" xmlns:xlink="http://www.w3.org/1999/xlink"
    width="200" height="200">
    <path
        d="M340.992 148.992a32.256 32.256 0 0 0-8.96 22.016 28.8 28.8 0 0 0 8.96 20.992l312 320-312 320a28.8 28.8 0 0 0 0 41.984 28.8 28.8 0 0 0 20.992 8.96 30.592 30.592 0 0 0 20.992-8l331.008-340.992a29.952 29.952 0 0 0 8.96-22.016 29.952 29.952 0 0 0-8.96-22.016L382.976 148.928a30.592 30.592 0 0 0-20.992-8 30.592 30.592 0 0 0-20.992 8v0.064z"
        fill="white" p-id="3201"></path>
</svg>