<?xml version="1.0" standalone="no"?><!DOCTYPE svg PUBLIC "-//W3C//DTD SVG 1.1//EN" "http://www.w3.org/Graphics/SVG/1.1/DTD/svg11.dtd"><svg class="icon" width="200px" height="200.00px" viewBox="0 0 1024 1024" version="1.1" xmlns="http://www.w3.org/2000/svg"><path fill="#ffffff" d="M960 512c0-112.384-200.576-352-448-352S64 399.104 64 512c0 112.896 200.576 352 448 352s448-239.616 448-352zM238.336 340.992Q366.656 224 512 224q145.28 0 273.664 117.12 52.672 48 84.032 101.12Q896 486.464 896 512q0 25.472-26.24 69.76-31.424 53.12-84.096 101.12Q657.216 800 512 800q-145.28 0-273.664-116.992-52.672-48-84.032-100.992Q128 537.664 128 512q0-25.6 26.24-70.016 31.424-52.992 84.096-100.992zM512 672a160 160 0 1 0 0-320 160 160 0 0 0 0 320z m0-256a96 96 0 1 1 0 192 96 96 0 0 1 0-192z"  /></svg>