<?xml version="1.0" standalone="no"?><!DOCTYPE svg PUBLIC "-//W3C//DTD SVG 1.1//EN" "http://www.w3.org/Graphics/SVG/1.1/DTD/svg11.dtd"><svg class="icon" width="200px" height="200.00px" viewBox="0 0 1024 1024" version="1.1" xmlns="http://www.w3.org/2000/svg"><path fill="#ffffff" d="M799.999887 289.356358H224.000113a31.970084 31.970084 0 0 0 0 63.940169h575.999774a31.970084 31.970084 0 0 0 0-63.940169zM799.999887 480.093133H224.000113a31.970084 31.970084 0 1 0 0 63.940169h575.999774a31.970084 31.970084 0 1 0 0-63.940169zM799.999887 670.829908H224.000113a31.970084 31.970084 0 0 0 0 63.940169h575.999774a31.970084 31.970084 0 0 0 0-63.940169z"  /><path fill="#ffffff" d="M948.041247 156.14406A150.750689 150.750689 0 0 0 809.164645 63.940169h-0.278158l-73.444496 1.325765a31.988147 31.988147 0 0 0 1.112631 63.965456l72.866506-1.260741a86.124156 86.124156 0 0 1 61.100792 25.449632c16.41131 16.41131 25.366546 38.234054 25.366546 61.440361v594.278716c0 23.206308-8.955236 44.956802-25.366546 61.368112a86.059133 86.059133 0 0 1-61.357275 25.377384H214.835355c-23.206308 0-45.061563-8.969686-61.472873-25.377384A86.18918 86.18918 0 0 1 127.880338 809.139358V214.860642a86.94418 86.94418 0 0 1 86.940568-86.882768h73.173562a31.970084 31.970084 0 1 0 0-63.940169H214.835355A150.82655 150.82655 0 0 0 63.940169 214.860642v594.278716A150.598966 150.598966 0 0 0 214.835355 959.825022h594.32929A150.328033 150.328033 0 0 0 959.825022 809.139358V214.860642a149.836742 149.836742 0 0 0-11.783775-58.716582z"  /><path fill="#ffffff" d="M415.997629 127.880338h192.001129a31.970084 31.970084 0 0 0 0-63.940169h-192.001129a31.970084 31.970084 0 0 0 0 63.940169z"  /></svg>