<?xml version="1.0" standalone="no"?><!DOCTYPE svg PUBLIC "-//W3C//DTD SVG 1.1//EN" "http://www.w3.org/Graphics/SVG/1.1/DTD/svg11.dtd"><svg class="icon" width="200px" height="200.00px" viewBox="0 0 1024 1024" version="1.1" xmlns="http://www.w3.org/2000/svg"><path fill="#ffffff" d="M955.392 287.744a31.68 31.68 0 0 1-3.2 13.76q-46.72 96.512-120.576 162.944l120.96 144.128a31.744 31.744 0 1 1-48.64 40.832L781.824 503.68q-9.408 6.528-19.264 12.672-32.704 20.416-67.072 35.072a32 32 0 0 1 1.792 3.712l69.12 171.008a31.744 31.744 0 0 1-58.88 23.744L638.464 578.944a31.808 31.808 0 0 1-1.92-6.848q-46.016 12.736-94.72 15.936c0.832 2.816 1.28 5.824 1.28 8.96v158.592a31.744 31.744 0 1 1-63.36 0V596.992c0-3.008 0.384-5.952 1.152-8.704q-51.072-2.88-99.2-16.256a32.448 32.448 0 0 1-0.256 0.896l-69.12 171.008a31.744 31.744 0 0 1-58.88-23.744l68.48-169.408q-31.552-13.76-61.76-32.512-12.032-7.488-23.488-15.552l-116.608 138.88a31.744 31.744 0 1 1-48.576-40.768l115.84-137.92Q115.84 397.056 70.272 301.632a31.68 31.68 0 0 1 57.216-27.264q58.944 123.52 166.016 190.016 99.584 61.76 217.408 61.248 117.76-0.576 217.92-63.04 107.264-66.88 166.272-188.736a31.808 31.808 0 0 1 60.224 13.888z"  /></svg>